<?xml version="1.0" standalone="no"?>
<!DOCTYPE svg PUBLIC "-//W3C//DTD SVG 20010904//EN"
 "http://www.w3.org/TR/2001/REC-SVG-20010904/DTD/svg10.dtd">
<svg version="1.0" xmlns="http://www.w3.org/2000/svg"
 width="300.000000pt" height="300.000000pt" viewBox="0 0 300.000000 300.000000"
 preserveAspectRatio="xMidYMid meet">
<metadata>
Created by potrace 1.10, written by Peter Selinger 2001-2011
</metadata>
<g transform="translate(0.000000,300.000000) scale(0.100000,-0.100000)"
fill="#000000" stroke="none">
<path d="M1399 2742 c-25 -3 -27 -6 -22 -43 5 -35 3 -39 -16 -39 -14 0 -21 -6
-21 -20 0 -13 7 -20 19 -20 15 0 19 -10 25 -52 3 -29 6 -68 6 -86 0 -22 9 -41
26 -58 21 -22 31 -25 62 -19 46 8 56 17 47 44 -5 17 -9 19 -30 9 -41 -18 -52
1 -54 92 l-2 80 41 0 c35 0 40 3 40 23 0 20 -4 22 -44 19 l-45 -4 -3 39 c-3
35 -5 38 -29 35z"/>
<path d="M1093 2699 c-72 -35 -90 -110 -39 -158 19 -18 40 -23 110 -28 81 -6
89 -8 99 -31 10 -21 8 -27 -16 -48 -22 -18 -40 -24 -78 -24 -28 0 -59 4 -69
10 -15 8 -19 5 -25 -17 -4 -17 -2 -29 7 -34 27 -17 84 -22 128 -10 86 22 128
71 116 135 -10 53 -51 76 -138 76 -55 0 -72 4 -88 20 -16 16 -18 25 -10 39 13
26 73 45 121 38 38 -5 39 -4 39 24 0 29 -1 29 -57 29 -38 0 -72 -7 -100 -21z"/>
<path d="M1620 2664 c-8 -3 -21 -7 -28 -10 -9 -3 -10 -9 -3 -22 8 -16 19 -18
59 -14 64 6 92 -9 92 -49 0 -25 -3 -30 -17 -25 -9 4 -41 9 -72 12 -48 5 -60 3
-83 -16 -32 -25 -38 -72 -13 -107 21 -30 87 -48 127 -34 39 14 38 14 32 -4 -4
-9 0 -15 9 -15 9 0 22 -2 29 -5 11 -4 18 19 31 98 20 113 15 145 -25 171 -25
16 -114 29 -138 20z m109 -159 c2 -2 1 -15 -3 -28 -14 -58 -136 -56 -136 2 0
33 22 43 80 36 30 -4 57 -9 59 -10z"/>
<path d="M1905 2570 c-31 -13 -71 -61 -85 -102 -21 -69 14 -130 94 -163 48
-20 111 -13 102 11 -3 9 -6 19 -6 24 0 4 -17 6 -38 3 -32 -4 -43 0 -70 25 -74
69 0 187 93 148 18 -8 38 -24 45 -35 11 -22 27 -26 49 -12 35 22 -78 112 -140
110 -13 0 -33 -4 -44 -9z"/>
<path d="M724 2534 c-21 -15 -20 -17 94 -170 110 -147 116 -154 136 -141 12 8
20 18 19 21 -1 4 -44 64 -96 134 -52 70 -100 137 -108 150 -16 26 -17 26 -45
6z"/>
<path d="M2137 2395 c-123 -140 -125 -143 -106 -161 19 -17 21 -16 53 15 25
25 41 32 63 29 l29 -3 -12 -70 -12 -70 29 -30 29 -30 0 32 c0 18 5 66 11 108
l11 75 69 0 c73 0 81 6 50 34 -17 16 -30 17 -105 9 -88 -9 -106 -2 -71 27 9 7
42 43 75 80 l60 68 -24 15 c-23 16 -25 14 -149 -128z"/>
<path d="M587 2412 c-15 -17 -8 -26 118 -152 134 -133 134 -134 155 -115 l21
19 -133 133 c-73 73 -135 133 -139 133 -3 0 -13 -8 -22 -18z"/>
<path d="M562 2227 c-23 -30 -19 -37 44 -77 99 -65 118 -107 68 -156 -32 -33
-54 -28 -145 31 l-68 44 -16 -21 c-17 -26 -21 -22 74 -82 86 -55 129 -66 166
-42 40 26 62 80 48 116 -13 34 -11 35 17 18 16 -11 22 -9 34 7 9 11 15 22 15
25 0 3 -51 37 -114 77 -81 50 -117 68 -123 60z"/>
<path d="M2445 2065 c-114 -93 -139 -118 -137 -137 1 -12 6 -26 10 -30 4 -4
73 -4 152 1 80 4 146 7 148 6 1 -1 -50 -42 -115 -90 -65 -48 -119 -89 -121
-90 -1 -1 2 -14 8 -29 l10 -28 191 4 c184 3 190 4 185 23 -3 11 -6 23 -6 28 0
10 -94 9 -214 -3 -55 -5 -101 -8 -103 -6 -2 2 53 45 122 95 69 51 125 94 125
96 0 2 -4 15 -9 28 -9 23 -12 24 -88 20 -43 -3 -111 -8 -151 -12 -40 -4 -74
-5 -77 -3 -4 4 158 128 228 175 15 10 17 17 8 40 -6 15 -14 27 -18 26 -5 -1
-71 -52 -148 -114z"/>
<path d="M315 1977 c-23 -76 -63 -222 -61 -224 1 -2 74 -23 162 -48 87 -25
164 -47 170 -49 6 -2 15 9 21 24 l11 28 -67 18 c-36 9 -69 20 -73 23 -4 4 3
41 16 83 21 66 22 77 9 82 -32 13 -40 4 -58 -70 -10 -41 -21 -77 -24 -78 -12
-7 -101 27 -101 38 0 6 11 45 24 87 l24 77 -24 11 c-19 8 -26 8 -29 -2z"/>
<path d="M2495 1593 c-54 -15 -95 -71 -95 -132 0 -34 28 -111 40 -111 19 0 31
29 21 49 -20 36 -13 95 12 119 44 41 49 31 45 -83 l-4 -105 33 0 c37 0 91 24
110 49 7 9 15 35 19 58 7 50 -16 106 -57 136 -27 19 -90 30 -124 20z m110 -70
c45 -44 33 -126 -20 -139 -14 -3 -27 -5 -28 -3 -1 2 -1 39 1 82 4 81 14 94 47
60z"/>
<path d="M540 1425 c-10 -12 -10 -18 0 -30 20 -25 55 -15 55 15 0 30 -35 40
-55 15z"/>
<path d="M2386 1308 c-9 -34 -8 -35 17 -42 21 -6 21 -7 -11 -26 -51 -32 -69
-109 -37 -169 16 -31 89 -71 130 -71 35 0 79 24 104 56 23 29 28 92 11 125
-13 24 -15 24 70 -7 40 -14 73 -24 74 -22 2 2 6 14 9 28 5 24 1 27 -161 81
-92 31 -174 60 -183 63 -12 5 -18 0 -23 -16z m129 -82 c59 -25 75 -97 30 -141
-51 -52 -155 -12 -155 59 0 37 23 74 54 86 29 12 32 12 71 -4z"/>
<path d="M330 1309 c0 -21 21 -49 48 -63 l27 -14 -27 -7 c-32 -8 -31 -6 -19
-39 10 -24 10 -24 58 -10 26 8 68 19 93 25 115 25 121 29 114 52 -3 12 -8 24
-10 26 -1 1 -36 -5 -77 -14 -88 -21 -122 -15 -145 25 -17 29 -62 43 -62 19z"/>
<path d="M587 1150 c-3 -13 1 -21 15 -26 23 -7 58 -61 58 -90 0 -12 -8 -32
-19 -45 l-19 -23 -48 97 -49 97 -39 -26 c-74 -50 -81 -135 -16 -202 53 -56
139 -52 200 9 56 56 46 147 -23 205 -35 29 -53 31 -60 4z m-36 -130 c20 -38
34 -72 31 -75 -27 -26 -112 32 -112 77 0 24 25 68 38 68 4 0 23 -32 43 -70z"/>
<path d="M2171 891 c-81 -86 -90 -104 -91 -171 0 -122 118 -209 233 -171 36
12 180 137 175 151 -3 9 -247 260 -251 259 -1 0 -31 -31 -66 -68z m161 -105
l88 -92 -56 -47 c-49 -41 -62 -47 -101 -47 -94 0 -161 96 -122 173 13 25 90
108 99 106 3 -1 44 -43 92 -93z"/>
<path d="M685 918 c-38 -20 -75 -61 -86 -95 -23 -70 23 -148 92 -159 37 -6 38
-8 24 -24 -14 -15 -13 -18 5 -35 21 -19 22 -18 108 67 48 47 108 105 134 128
45 42 46 44 30 66 l-17 23 -57 -57 -58 -56 0 38 c0 31 -7 46 -39 77 -32 32
-46 39 -77 39 -22 0 -48 -6 -59 -12z m114 -65 c12 -10 24 -35 28 -55 5 -33 2
-41 -30 -73 -42 -42 -74 -45 -116 -9 -40 33 -42 79 -5 123 20 25 34 31 64 31
21 0 47 -8 59 -17z"/>
<path d="M978 720 c-50 -9 -82 -32 -102 -73 -35 -74 -9 -150 63 -187 92 -46
173 -9 202 93 26 90 -66 184 -163 167z m87 -75 c36 -36 34 -88 -5 -127 -27
-26 -36 -30 -67 -25 -84 14 -106 90 -45 160 23 26 87 23 117 -8z"/>
<path d="M1900 689 c-31 -13 -90 -69 -90 -85 0 -27 31 -21 64 12 24 24 43 34
66 34 34 0 70 -15 70 -30 0 -5 -40 -28 -90 -51 -54 -25 -90 -48 -90 -57 0 -8
17 -32 39 -53 43 -44 88 -51 140 -24 96 49 108 158 28 234 -29 27 -97 37 -137
20z m140 -137 c0 -61 -61 -101 -118 -76 -18 7 -32 18 -32 23 0 10 124 79 143
81 4 0 7 -12 7 -28z"/>
<path d="M1171 455 c-30 -103 -52 -188 -50 -190 2 -2 16 -6 32 -10 22 -6 27
-4 27 11 0 11 22 94 48 186 l48 167 -23 10 c-13 6 -25 11 -27 11 -1 0 -26 -83
-55 -185z"/>
<path d="M1663 613 c-14 -3 -25 -13 -27 -26 -15 -74 -46 -254 -46 -263 0 -17
49 -4 54 15 2 9 10 60 17 114 7 53 15 97 18 97 3 0 30 -43 59 -95 49 -86 57
-95 83 -95 16 0 29 3 29 6 0 10 -155 254 -160 253 -3 -1 -15 -4 -27 -6z"/>
<path d="M1352 585 c-37 -16 -42 -53 -7 -47 85 15 107 14 131 -9 34 -32 32
-60 -3 -54 -16 2 -63 7 -105 9 l-78 5 0 -35 c0 -19 7 -50 15 -70 24 -58 110
-81 180 -48 49 23 69 59 70 126 0 47 -4 61 -25 83 -48 52 -115 67 -178 40z
m146 -151 c2 -1 1 -12 -3 -23 -9 -28 -61 -54 -91 -47 -32 8 -64 41 -64 64 0
17 7 19 78 14 42 -2 79 -6 80 -8z"/>
</g>
</svg>
